<!DOCTYPE svg PUBLIC "-//W3C//DTD SVG 1.1//EN" "http://www.w3.org/Graphics/SVG/1.1/DTD/svg11.dtd">
<!-- Uploaded to: SVG Repo, www.svgrepo.com, Transformed by: SVG Repo Mixer Tools -->
<svg width="800px" height="800px" viewBox="-4.08 -4.08 32.16 32.16" xmlns="http://www.w3.org/2000/svg" fill="#24c5f3" stroke="#24c5f3" stroke-width="0.00024000000000000003">
<g id="SVGRepo_bgCarrier" stroke-width="0">
<rect x="-4.08" y="-4.08" width="32.16" height="32.16" rx="16.08" fill="#333" strokewidth="0"/>
</g>
<g id="SVGRepo_tracerCarrier" stroke-linecap="round" stroke-linejoin="round"/>
<g id="SVGRepo_iconCarrier"> <g> <path fill="none" d="M0 0h24v24H0z"/> <path d="M3 19V5.7a1 1 0 0 1 .658-.94l9.671-3.516a.5.5 0 0 1 .671.47v4.953l6.316 2.105a1 1 0 0 1 .684.949V19h2v2H1v-2h2zm2 0h7V3.855L5 6.401V19zm14 0v-8.558l-5-1.667V19h5z"/> </g> </g>
</svg>